{
  "asset": {
    "version": "2.0",
    "generator": "babylon.js glTF exporter for 3dsmax 2024 v20240125.3"
  },
  "scene": 0,
  "scenes": [
    {
      "nodes": [
        0
      ]
    }
  ],
  "nodes": [
    {
      "children": [
        1
      ],
      "mesh": 0,
      "rotation": [
        0.7071068,
        0.0,
        0.0,
        0.7071067
      ],
      "name": "bark05_0"
    },
    {
      "mesh": 1,
      "name": "fir leaf2_1"
    }
  ],
  "meshes": [
    {
      "primitives": [
        {
          "attributes": {
            "POSITION": 1,
            "NORMAL": 2,
            "COLOR_0": 3,
            "TEXCOORD_0": 4
          },
          "indices": 0,
          "material": 0
        }
      ],
      "name": "bark05_0"
    },
    {
      "primitives": [
        {
          "attributes": {
            "POSITION": 6,
            "NORMAL": 7,
            "COLOR_0": 8,
            "TEXCOORD_0": 9
          },
          "indices": 5,
          "material": 1
        }
      ],
      "name": "fir leaf2_1"
    }
  ],
  "accessors": [
    {
      "bufferView": 0,
      "componentType": 5123,
      "count": 4017,
      "type": "SCALAR",
      "name": "accessorIndices"
    },
    {
      "bufferView": 1,
      "componentType": 5126,
      "count": 1016,
      "max": [
        0.991298258,
        1.00776315,
        0.000105
      ],
      "min": [
        -1.02859,
        -1.0665704,
        -6.999676
      ],
      "type": "VEC3",
      "name": "accessorPositions"
    },
    {
      "bufferView": 1,
      "byteOffset": 12192,
      "componentType": 5126,
      "count": 1016,
      "type": "VEC3",
      "name": "accessorNormals"
    },
    {
      "bufferView": 2,
      "componentType": 5126,
      "count": 1016,
      "type": "VEC4",
      "name": "accessorColors"
    },
    {
      "bufferView": 3,
      "componentType": 5126,
      "count": 1016,
      "type": "VEC2",
      "name": "accessorUVs"
    },
    {
      "bufferView": 0,
      "byteOffset": 8036,
      "componentType": 5123,
      "count": 4914,
      "type": "SCALAR",
      "name": "accessorIndices"
    },
    {
      "bufferView": 1,
      "byteOffset": 24384,
      "componentType": 5126,
      "count": 3430,
      "max": [
        1.60117936,
        1.58937359,
        0.0767181
      ],
      "min": [
        -1.40853357,
        -1.54502654,
        -7.099276
      ],
      "type": "VEC3",
      "name": "accessorPositions"
    },
    {
      "bufferView": 1,
      "byteOffset": 65544,
      "componentType": 5126,
      "count": 3430,
      "type": "VEC3",
      "name": "accessorNormals"
    },
    {
      "bufferView": 2,
      "byteOffset": 16256,
      "componentType": 5126,
      "count": 3430,
      "type": "VEC4",
      "name": "accessorColors"
    },
    {
      "bufferView": 3,
      "byteOffset": 8128,
      "componentType": 5126,
      "count": 3430,
      "type": "VEC2",
      "name": "accessorUVs"
    }
  ],
  "bufferViews": [
    {
      "buffer": 0,
      "byteLength": 17864,
      "name": "bufferViewScalar"
    },
    {
      "buffer": 0,
      "byteOffset": 17864,
      "byteLength": 106704,
      "byteStride": 12,
      "name": "bufferViewFloatVec3"
    },
    {
      "buffer": 0,
      "byteOffset": 124568,
      "byteLength": 71136,
      "byteStride": 16,
      "name": "bufferViewFloatVec4"
    },
    {
      "buffer": 0,
      "byteOffset": 195704,
      "byteLength": 35568,
      "byteStride": 8,
      "name": "bufferViewFloatVec2"
    }
  ],
  "buffers": [
    {
      "uri": "fir.bin",
      "byteLength": 231272
    }
  ],
  "materials": [
    {
      "pbrMetallicRoughness": {
        "baseColorTexture": {
          "index": 0
        },
        "metallicFactor": 0.0,
        "roughnessFactor": 0.5678072
      },
      "doubleSided": true,
      "name": "bark05_0Mat",
      "extras": {
        "babylonSeparateCullingPass": false
      }
    },
    {
      "pbrMetallicRoughness": {
        "baseColorTexture": {
          "index": 1
        },
        "metallicFactor": 0.0,
        "roughnessFactor": 0.5678072
      },
      "doubleSided": true,
      "name": "leaf2_1Mat",
      "extras": {
        "babylonSeparateCullingPass": false
      }
    }
  ],
  "textures": [
    {
      "sampler": 0,
      "source": 0,
      "name": "bark05.png"
    },
    {
      "sampler": 0,
      "source": 1,
      "name": "fir leaf2.png"
    }
  ],
  "images": [
    {
      "uri": "bark05.png"
    },
    {
      "uri": "fir leaf2.png"
    }
  ],
  "samplers": [
    {
      "magFilter": 9729,
      "minFilter": 9987
    }
  ]
}