{
  "asset": {
    "version": "2.0",
    "generator": "babylon.js glTF exporter for 3dsmax 2024 v20240125.3"
  },
  "scene": 0,
  "scenes": [
    {
      "nodes": [
        0,
        1,
        2
      ]
    }
  ],
  "nodes": [
    {
      "mesh": 0,
      "translation": [
        0.655126035,
        0.0,
        0.2788916
      ],
      "name": "pine4m"
    },
    {
      "mesh": 1,
      "translation": [
        -5.88029337,
        0.0,
        0.118833005
      ],
      "name": "pine4mLOD1"
    },
    {
      "mesh": 2,
      "translation": [
        -2.75505066,
        0.0,
        0.4252356
      ],
      "name": "pine4mLOD2"
    }
  ],
  "meshes": [
    {
      "primitives": [
        {
          "attributes": {
            "POSITION": 1,
            "NORMAL": 2,
            "TEXCOORD_0": 3
          },
          "indices": 0,
          "material": 0
        },
        {
          "attributes": {
            "POSITION": 5,
            "NORMAL": 6,
            "TEXCOORD_0": 7
          },
          "indices": 4,
          "material": 1
        },
        {
          "attributes": {
            "POSITION": 9,
            "NORMAL": 10,
            "TEXCOORD_0": 11
          },
          "indices": 8,
          "material": 2
        }
      ],
      "name": "pine4m"
    },
    {
      "primitives": [
        {
          "attributes": {
            "POSITION": 13,
            "NORMAL": 14,
            "TEXCOORD_0": 15
          },
          "indices": 12,
          "material": 0
        },
        {
          "attributes": {
            "POSITION": 17,
            "NORMAL": 18,
            "TEXCOORD_0": 19
          },
          "indices": 16,
          "material": 1
        },
        {
          "attributes": {
            "POSITION": 21,
            "NORMAL": 22,
            "TEXCOORD_0": 23
          },
          "indices": 20,
          "material": 2
        }
      ],
      "name": "pine4mLOD1"
    },
    {
      "primitives": [
        {
          "attributes": {
            "POSITION": 25,
            "NORMAL": 26,
            "TEXCOORD_0": 27
          },
          "indices": 24,
          "material": 1
        },
        {
          "attributes": {
            "POSITION": 29,
            "NORMAL": 30,
            "TEXCOORD_0": 31
          },
          "indices": 28,
          "material": 2
        }
      ],
      "name": "pine4mLOD2"
    }
  ],
  "accessors": [
    {
      "bufferView": 0,
      "componentType": 5123,
      "count": 225,
      "type": "SCALAR",
      "name": "accessorIndices"
    },
    {
      "bufferView": 1,
      "componentType": 5126,
      "count": 55,
      "max": [
        0.0574050471,
        3.90000367,
        0.103105582
      ],
      "min": [
        -0.06804904,
        -0.04051834,
        -0.08259535
      ],
      "type": "VEC3",
      "name": "accessorPositions"
    },
    {
      "bufferView": 1,
      "byteOffset": 660,
      "componentType": 5126,
      "count": 55,
      "type": "VEC3",
      "name": "accessorNormals"
    },
    {
      "bufferView": 2,
      "componentType": 5126,
      "count": 55,
      "type": "VEC2",
      "name": "accessorUVs"
    },
    {
      "bufferView": 0,
      "byteOffset": 452,
      "componentType": 5123,
      "count": 3456,
      "type": "SCALAR",
      "name": "accessorIndices"
    },
    {
      "bufferView": 1,
      "byteOffset": 1320,
      "componentType": 5126,
      "count": 1152,
      "max": [
        1.69591057,
        4.24647236,
        1.61926413
      ],
      "min": [
        -1.70008755,
        0.128308177,
        -1.6664654
      ],
      "type": "VEC3",
      "name": "accessorPositions"
    },
    {
      "bufferView": 1,
      "byteOffset": 15144,
      "componentType": 5126,
      "count": 1152,
      "type": "VEC3",
      "name": "accessorNormals"
    },
    {
      "bufferView": 2,
      "byteOffset": 440,
      "componentType": 5126,
      "count": 1152,
      "type": "VEC2",
      "name": "accessorUVs"
    },
    {
      "bufferView": 0,
      "byteOffset": 7364,
      "componentType": 5123,
      "count": 78,
      "type": "SCALAR",
      "name": "accessorIndices"
    },
    {
      "bufferView": 1,
      "byteOffset": 28968,
      "componentType": 5126,
      "count": 52,
      "max": [
        1.14156532,
        2.168798,
        1.02099359
      ],
      "min": [
        -1.07527,
        -0.172961429,
        -1.04485118
      ],
      "type": "VEC3",
      "name": "accessorPositions"
    },
    {
      "bufferView": 1,
      "byteOffset": 29592,
      "componentType": 5126,
      "count": 52,
      "type": "VEC3",
      "name": "accessorNormals"
    },
    {
      "bufferView": 2,
      "byteOffset": 9656,
      "componentType": 5126,
      "count": 52,
      "type": "VEC2",
      "name": "accessorUVs"
    },
    {
      "bufferView": 0,
      "byteOffset": 7520,
      "componentType": 5123,
      "count": 21,
      "type": "SCALAR",
      "name": "accessorIndices"
    },
    {
      "bufferView": 1,
      "byteOffset": 30216,
      "componentType": 5126,
      "count": 9,
      "max": [
        0.0574050471,
        3.23237228,
        0.0523079224
      ],
      "min": [
        -0.06743494,
        -0.04051834,
        -0.08259535
      ],
      "type": "VEC3",
      "name": "accessorPositions"
    },
    {
      "bufferView": 1,
      "byteOffset": 30324,
      "componentType": 5126,
      "count": 9,
      "type": "VEC3",
      "name": "accessorNormals"
    },
    {
      "bufferView": 2,
      "byteOffset": 10072,
      "componentType": 5126,
      "count": 9,
      "type": "VEC2",
      "name": "accessorUVs"
    },
    {
      "bufferView": 0,
      "byteOffset": 7564,
      "componentType": 5123,
      "count": 2304,
      "type": "SCALAR",
      "name": "accessorIndices"
    },
    {
      "bufferView": 1,
      "byteOffset": 30432,
      "componentType": 5126,
      "count": 960,
      "max": [
        1.69591057,
        4.24647236,
        1.61926413
      ],
      "min": [
        -1.70008755,
        0.128308177,
        -1.6664654
      ],
      "type": "VEC3",
      "name": "accessorPositions"
    },
    {
      "bufferView": 1,
      "byteOffset": 41952,
      "componentType": 5126,
      "count": 960,
      "type": "VEC3",
      "name": "accessorNormals"
    },
    {
      "bufferView": 2,
      "byteOffset": 10144,
      "componentType": 5126,
      "count": 960,
      "type": "VEC2",
      "name": "accessorUVs"
    },
    {
      "bufferView": 0,
      "byteOffset": 12172,
      "componentType": 5123,
      "count": 78,
      "type": "SCALAR",
      "name": "accessorIndices"
    },
    {
      "bufferView": 1,
      "byteOffset": 53472,
      "componentType": 5126,
      "count": 52,
      "max": [
        1.14156532,
        2.168798,
        1.02099359
      ],
      "min": [
        -1.07527,
        -0.172961429,
        -1.04485118
      ],
      "type": "VEC3",
      "name": "accessorPositions"
    },
    {
      "bufferView": 1,
      "byteOffset": 54096,
      "componentType": 5126,
      "count": 52,
      "type": "VEC3",
      "name": "accessorNormals"
    },
    {
      "bufferView": 2,
      "byteOffset": 17824,
      "componentType": 5126,
      "count": 52,
      "type": "VEC2",
      "name": "accessorUVs"
    },
    {
      "bufferView": 0,
      "byteOffset": 12328,
      "componentType": 5123,
      "count": 708,
      "type": "SCALAR",
      "name": "accessorIndices"
    },
    {
      "bufferView": 1,
      "byteOffset": 54720,
      "componentType": 5126,
      "count": 439,
      "max": [
        1.69591057,
        4.203713,
        1.61926413
      ],
      "min": [
        -1.70008755,
        0.16048485,
        -1.6664654
      ],
      "type": "VEC3",
      "name": "accessorPositions"
    },
    {
      "bufferView": 1,
      "byteOffset": 59988,
      "componentType": 5126,
      "count": 439,
      "type": "VEC3",
      "name": "accessorNormals"
    },
    {
      "bufferView": 2,
      "byteOffset": 18240,
      "componentType": 5126,
      "count": 439,
      "type": "VEC2",
      "name": "accessorUVs"
    },
    {
      "bufferView": 0,
      "byteOffset": 13744,
      "componentType": 5123,
      "count": 78,
      "type": "SCALAR",
      "name": "accessorIndices"
    },
    {
      "bufferView": 1,
      "byteOffset": 65256,
      "componentType": 5126,
      "count": 52,
      "max": [
        1.14156532,
        2.168798,
        1.02099359
      ],
      "min": [
        -1.07527,
        -0.172961429,
        -1.04485118
      ],
      "type": "VEC3",
      "name": "accessorPositions"
    },
    {
      "bufferView": 1,
      "byteOffset": 65880,
      "componentType": 5126,
      "count": 52,
      "type": "VEC3",
      "name": "accessorNormals"
    },
    {
      "bufferView": 2,
      "byteOffset": 21752,
      "componentType": 5126,
      "count": 52,
      "type": "VEC2",
      "name": "accessorUVs"
    }
  ],
  "bufferViews": [
    {
      "buffer": 0,
      "byteLength": 13900,
      "name": "bufferViewScalar"
    },
    {
      "buffer": 0,
      "byteOffset": 13900,
      "byteLength": 66504,
      "byteStride": 12,
      "name": "bufferViewFloatVec3"
    },
    {
      "buffer": 0,
      "byteOffset": 80404,
      "byteLength": 22168,
      "byteStride": 8,
      "name": "bufferViewFloatVec2"
    }
  ],
  "buffers": [
    {
      "uri": "trees.bin",
      "byteLength": 102572
    }
  ],
  "materials": [
    {
      "pbrMetallicRoughness": {
        "baseColorFactor": [
          0.588,
          0.588,
          0.588,
          1.0
        ],
        "metallicFactor": 0.0,
        "roughnessFactor": 0.450053632
      },
      "doubleSided": true,
      "name": "pine-trunk"
    },
    {
      "pbrMetallicRoughness": {
        "baseColorFactor": [
          0.588,
          0.588,
          0.588,
          1.0
        ],
        "metallicFactor": 0.0,
        "roughnessFactor": 0.450053632
      },
      "doubleSided": true,
      "name": "pine-leaf"
    },
    {
      "pbrMetallicRoughness": {
        "baseColorFactor": [
          0.588,
          0.588,
          0.588,
          1.0
        ],
        "metallicFactor": 0.0,
        "roughnessFactor": 0.450053632
      },
      "doubleSided": true,
      "name": "pine-branch"
    }
  ]
}